<svg xmlns="http://www.w3.org/2000/svg" xmlns:xlink="http://www.w3.org/1999/xlink" xmlns:inkscape="http://www.inkscape.org/namespaces/inkscape" version="1.1" width="117.027" height="551.654" viewBox="0 0 117.027 551.654">
<g filter="invert(1) hue-rotate(180deg)">

<defs>
<path id="font_1_4" d="M.30099488 .6725464C.2899933 .6845398 .2889862 .6855469 .2679901 .6855469H.038986207V.63853457H.14698792V.07597351C.14698792 .053985597 .1459961 .052993776 .117996219 .049987794 .09399414 .04699707 .09199524 .04699707 .06399536 .04699707H.038986207V0C.07699585 .0029907227 .13398743 .0029907227 .17298889 .0029907227 .21499634 .0029907227 .2669983 .0029907227 .30799867 0V.04699707H.2829895C.2649994 .04699707 .24798584 .04798889 .22999573 .049987794 .20098877 .052993776 .19999695 .053985597 .19999695 .07597351V.5985718L.69799807 .0129852299C.70799258 .0009918213 .70899966 0 .72499087 0 .7519989 0 .7519989 .008987427 .7519989 .03199768V.6095581C.7519989 .631546 .7529907 .63253787 .7809906 .6355438 .8049927 .63853457 .8069916 .63853457 .83499148 .63853457H.8600006V.6855469C.82199099 .6825409 .7649994 .6825409 .7259979 .6825409 .6839905 .6825409 .6319885 .6825409 .59098818 .6855469V.63853457H.6159973C.6339874 .63853457 .651001 .6375427 .6689911 .6355438 .69799807 .63253787 .69898989 .631546 .69898989 .6095581V.2048645L.30099488 .6725464Z"/>
<path id="font_1_5" d="M.37399293 .077056888C.37399293 .04598999 .37399293 0 .47799684 0H.526001C.54599 0 .55799868 0 .55799868 .023986817 .55799868 .04699707 .54499819 .04699707 .5319977 .04699707 .47099305 .04798889 .47099305 .061019899 .47099305 .08406067V.2993164C.47099305 .38816834 .3999939 .453125 .25099183 .453125 .19400025 .453125 .07199097 .44911195 .07199097 .36120606 .07199097 .317276 .10699463 .29830934 .13398743 .29830934 .16499329 .29830934 .19699097 .3192749 .19699097 .36120606 .19699097 .39115907 .17799378 .40812684 .1749878 .41012574 .20298767 .41612245 .23498535 .41711427 .24699402 .41711427 .32199098 .41711427 .35699464 .3751831 .35699464 .2993164V.2653656C.28599549 .26237489 .03199768 .2533722 .03199768 .10821533 .03199768 .012130737 .1559906-.005859375 .22499085-.005859375 .30499269-.006011963 .35198976 .034988405 .37399293 .077056888M.35699464 .234375V.13917542C.35699464 .042999269 .2649994 .02999878 .23999024 .02999878 .18899536 .02999878 .14898682 .06503296 .14898682 .1091156 .14898682 .21733094 .30699159 .23135376 .35699464 .234375Z"/>
<path id="font_1_14" d="M.11399841 .3561554V.04699707H.04499817V0C.07299805 .0009918213 .1329956 .0029907227 .17098999 .0029907227 .20999146 .0029907227 .2689972 .0009918213 .29699708 0V.04699707H.22799683V.25610353C.22799683 .36515809 .31399537 .41418458 .3769989 .41418458 .41099549 .41418458 .43199159 .39317323 .43199159 .31713868V.04699707H.36299134V0C.3909912 .0009918213 .45098878 .0029907227 .4889984 .0029907227 .5279999 .0029907227 .58699038 .0009918213 .61499026 0V.04699707H.54599V.30613709C.54599 .41119386 .49198915 .4501953 .3919983 .4501953 .29599 .4501953 .24299622 .39317323 .21699524 .34214784V.4501953L.04499817 .44218446V.39518739C.10699463 .39518739 .11399841 .39518739 .11399841 .3561554Z"/>
<path id="font_1_15" d="M.5419922 .21812439C.5419922 .35212709 .44999696 .453125 .2869873 .453125 .12298584 .453125 .03199768 .35112 .03199768 .21812439 .03199768 .09413147 .11999512-.005859375 .2869873-.005859375 .45498658-.005859375 .5419922 .09512329 .5419922 .21812439M.2869873 .03413391C.1599884 .03413391 .1599884 .14213562 .1599884 .22912598 .1599884 .27412416 .1599884 .32511903 .1769867 .3591156 .19599915 .39611817 .23799134 .41711427 .2869873 .41711427 .32899476 .41711427 .37098695 .40112306 .3929901 .36611939 .4139862 .3321228 .4139862 .27713014 .4139862 .22912598 .4139862 .14213562 .4139862 .03413391 .2869873 .03413391Z"/>
<path id="font_1_16" d="M.21998596 .32917787C.21998596 .34817506 .22099304 .34918214 .23498535 .36317445 .2749939 .40419007 .32699586 .41018678 .34899903 .41018678 .41600038 .41018678 .47200013 .34918214 .47200013 .22315979 .47200013 .08213806 .4019928 .030136109 .33699037 .030136109 .32299806 .030136109 .27598573 .030136109 .23098755 .08413696 .21998596 .09713745 .21998596 .09814453 .21998596 .11714172V.32917787M.21998596 .039138795C.2630005 .004135132 .30699159-.005859375 .34799195-.005859375 .49798585-.005859375 .59999087 .08413696 .59999087 .22315979 .59999087 .35617066 .5089874 .4501953 .36499024 .4501953 .2899933 .4501953 .23699951 .41918946 .21398926 .40118409V.4501953L.036987306 .44218446V.39518739C.09899902 .39518739 .10598755 .39518739 .10598755 .35717774V-.14733887H.036987306V-.19433594C.06498718-.19334412 .125-.19134522 .16299439-.19134522 .20199585-.19134522 .26098634-.19334412 .2889862-.19433594V-.14733887H.21998596V.039138795Z"/>
<path id="font_1_17" d="M.20298767 .3371582V.4501953L.036987306 .44218446V.39518739C.09899902 .39518739 .10598755 .39518739 .10598755 .35617066V.04699707H.036987306V0C.07199097 .0009918213 .116989139 .0029907227 .16299439 .0029907227 .20098877 .0029907227 .2649994 .0029907227 .30099488 0V.04699707H.21398926V.22209168C.21398926 .2921753 .23899842 .41418458 .33898927 .41418458 .33799745 .41319276 .31999208 .39718629 .31999208 .36819459 .31999208 .3271942 .35198976 .30718995 .3809967 .30718995 .4099884 .30718995 .44198609 .32818605 .44198609 .36819459 .44198609 .42118836 .3880005 .4501953 .33599855 .4501953 .2659912 .4501953 .22599793 .40019227 .20298767 .3371582Z"/>
<path id="font_1_19" d="M.102996829 .3973236V.123184207C.102996829 .01612854 .18998719-.005859375 .26098634-.005859375 .33699037-.005859375 .38198854 .05114746 .38198854 .124176029V.17721558H.33499146V.12619019C.33499146 .058151246 .30299378 .03413391 .2749939 .03413391 .21699524 .03413391 .21699524 .09817505 .21699524 .1211853V.3973236H.36299134V.44433595H.21699524V.6352234H.16999817C.16899109 .5352783 .11999512 .43632508 .020996094 .43333436V.3973236H.102996829Z"/>
<path id="font_1_11" d="M.22399903 .4501953 .049987794 .44218446V.39518739C.10899353 .39518739 .115997318 .39518739 .115997318 .35617066V.04699707H.04699707V0C.07798767 .0009918213 .1269989 .0029907227 .16899109 .0029907227 .19898987 .0029907227 .25 .0009918213 .28599549 0V.04699707H.22399903V.4501953M.23399353 .6173096C.23399353 .66130068 .19799805 .6953125 .1559906 .6953125 .11299133 .6953125 .07798767 .66030886 .07798767 .6173096 .07798767 .5743103 .11299133 .53930667 .1559906 .53930667 .19799805 .53930667 .23399353 .5733032 .23399353 .6173096Z"/>
<path id="font_1_6" d="M.3600006 .40711976C.34199525 .39111329 .33999635 .3701172 .33999635 .3611145 .33999635 .3171234 .375 .29812623 .4019928 .29812623 .43299867 .29812623 .46499635 .3191223 .46499635 .3611145 .46499635 .44711305 .34899903 .453125 .29100038 .453125 .11199951 .453125 .037994386 .3381195 .037994386 .22212219 .037994386 .08912659 .13198853-.005859375 .28599549-.005859375 .44799806-.005859375 .47799684 .11012268 .47799684 .117126468 .47799684 .13113404 .46398927 .13113404 .45399476 .13113404 .43598939 .13113404 .43499757 .12913513 .42999269 .11613464 .4039917 .053131105 .35598756 .03413391 .30499269 .03413391 .1659851 .03413391 .1659851 .18112183 .1659851 .22712708 .1659851 .28312684 .1659851 .41311646 .29499818 .41311646 .32998658 .41311646 .34700013 .41011048 .3600006 .40711976Z"/>
<path id="font_1_12" d="M.22399903 .69433596 .04699707 .6863251V.639328C.10899353 .639328 .115997318 .639328 .115997318 .6003113V.04699707H.04699707V0C.07899475 .0009918213 .1269989 .0029907227 .16999817 .0029907227 .21299744 .0029907227 .25898744 .0009918213 .29299928 0V.04699707H.22399903V.69433596Z"/>
<path id="font_1_7" d="M.46199037 .2179718C.48399354 .2179718 .49398805 .2179718 .49398805 .2449646 .49398805 .27598573 .48799134 .34906007 .43798829 .3991089 .40098573 .43511964 .34799195 .453125 .2789917 .453125 .11898804 .453125 .03199768 .35005189 .03199768 .22497559 .03199768 .09107971 .13198853-.005859375 .29299928-.005859375 .45098878-.005859375 .49398805 .10006714 .49398805 .11706543 .49398805 .13504029 .47499085 .13504029 .46998597 .13504029 .45298768 .13504029 .45098878 .13005066 .44499208 .11405945 .42399598 .066101077 .36698915 .03413391 .3019867 .03413391 .16099549 .03413391 .1599884 .16700745 .1599884 .2179718H.46199037M.1599884 .25097657C.1619873 .29000855 .16299439 .3320465 .18399048 .36506654 .20999146 .4051056 .25 .41711427 .2789917 .41711427 .3959961 .41711427 .397995 .28599549 .39898683 .25097657H.1599884Z"/>
<path id="font_1_10" d="M.11399841 .04699707H.04499817V0C.07299805 .0009918213 .1329956 .0029907227 .17098999 .0029907227 .20999146 .0029907227 .2689972 .0009918213 .29699708 0V.04699707H.22799683V.25610353C.22799683 .36515809 .31399537 .41418458 .3769989 .41418458 .41099549 .41418458 .43199159 .39317323 .43199159 .31713868V.04699707H.36299134V0C.3909912 .0009918213 .45098878 .0029907227 .4889984 .0029907227 .5279999 .0029907227 .58699038 .0009918213 .61499026 0V.04699707H.54599V.30613709C.54599 .41119386 .49198915 .4501953 .3919983 .4501953 .29599 .4501953 .24499512 .3921814 .22200012 .3521576V.69433596L.04499817 .6863251V.639328C.10699463 .639328 .11399841 .639328 .11399841 .600296V.04699707Z"/>
<path id="font_1_20" d="M.44898988 .4013214C.45700074 .412323 .45899964 .4143219 .45899964 .42332459 .45899964 .44433595 .44499208 .44433595 .4269867 .44433595H.05999756L.04798889 .26919557H.09498596C.100997928 .3722992 .13198853 .4083252 .23498535 .4083252H.31999208L.040985109 .04399109C.03199768 .032989503 .03199768 .0309906 .03199768 .021987915 .03199768 0 .04499817 0 .06399536 0H.44400025L.46199037 .20213318H.4149933C.4059906 .1010437 .3899994 .039993287 .2579956 .039993287H.17199707L.44898988 .4013214Z"/>
<path id="font_2_6" d="M.034988405 .6826172V.6516113H.05899048C.13598633 .6516113 .13798523 .64060977 .13798523 .6046295V.07795715C.13798523 .041992189 .13598633 .0309906 .05899048 .0309906H.034988405V0H.40098573C.56900027 0 .70700076 .1479187 .70700076 .33580018 .70700076 .52568057 .57199099 .6826172 .40098573 .6826172H.034988405M.272995 .0309906C.22599793 .0309906 .22399903 .037994386 .22399903 .07096863V.6116333C.22399903 .64460757 .22599793 .6516113 .272995 .6516113H.37298585C.43499757 .6516113 .5039978 .6296234 .5549927 .55867007 .59799197 .49969483 .6069946 .41375733 .6069946 .33580018 .6069946 .22486878 .58799746 .16490174 .5519867 .11593628 .5319977 .08895874 .47499085 .0309906 .37399293 .0309906H.272995Z"/>
<path id="font_2_14" d="M.11199951 .2524414C.117996219 .40126039 .20199585 .426239 .23599243 .426239 .33898927 .426239 .34899903 .2913971 .34899903 .2524414H.11199951M.11099243 .23144531H.3899994C.4119873 .23144531 .4149933 .23144531 .4149933 .2524414 .4149933 .35131837 .36099244 .4482422 .23599243 .4482422 .11999512 .4482422 .027999878 .34532167 .027999878 .22042847 .027999878 .08631897 .1329956-.0107421879 .24798584-.0107421879 .36999513-.0107421879 .4149933 .10032654 .4149933 .11933899 .4149933 .12934876 .40699769 .13134766 .4019928 .13134766 .3929901 .13134766 .3909912 .12535095 .3889923 .11734009 .35398866 .014251709 .2639923 .014251709 .2539978 .014251709 .20399475 .014251709 .1639862 .044281007 .14099121 .08131409 .11099243 .12934876 .11099243 .19540406 .11099243 .23144531Z"/>
<path id="font_2_2" d="M.32998658 .40034486C.37599183 .40034486 .3829956 .38734437 .3829956 .34629823V.076034549C.3829956 .0309906 .37199403 .0309906 .30499269 .0309906V0C.33799745 .0009918213 .3909912 .0029907227 .41600038 .0029907227 .44099427 .0029907227 .48999024 .0009918213 .5269928 0V.0309906C.45999146 .0309906 .44898988 .0309906 .44898988 .076034549V.44335938L.32299806 .4343567C.30699159 .4333496 .30599977 .4323578 .30499269 .4323578 .30299378 .43066407 .30099488 .43066407 .2869873 .43066407H.16899109V.54437258C.16899109 .6434479 .25498963 .68307498 .31698609 .68307498 .34700013 .68307498 .3829956 .673172 .40299989 .65042117 .3619995 .6484375 .35598756 .6204529 .35598756 .6044464 .35598756 .5714569 .38198854 .5584564 .40098573 .5584564 .42399598 .5584564 .44699098 .57444766 .44699098 .6044464 .44699098 .6632843 .3919983 .7050781 .31799317 .7050781 .22499085 .7050781 .10598755 .65437319 .10598755 .5453644V.43066407H.026992798V.3996582H.10598755V.07595825C.10598755 .0309906 .09498596 .0309906 .027999878 .0309906V0C.06098938 .0009918213 .11399841 .0029907227 .13899231 .0029907227 .1639862 .0029907227 .21299744 .0009918213 .25 0V.0309906C.18299866 .0309906 .17199707 .0309906 .17199707 .07595825V.3996582L.32998658 .40034486Z"/>
<path id="font_2_21" d="M.10998535 .34429933V.076034549C.10998535 .0309906 .09899902 .0309906 .03199768 .0309906V0C.066986087 .0009918213 .117996219 .0029907227 .14498902 .0029907227 .17098999 .0029907227 .22299195 .0009918213 .25698854 0V.0309906C.18998719 .0309906 .1789856 .0309906 .1789856 .076034549V.2602234C.1789856 .36431886 .25 .42037965 .31399537 .42037965 .3769989 .42037965 .3880005 .36631776 .3880005 .30926515V.076034549C.3880005 .0309906 .3769989 .0309906 .30999757 .0309906V0C.34498597 .0009918213 .3959961 .0029907227 .4229889 .0029907227 .44898988 .0029907227 .5009918 .0009918213 .5349884 0V.0309906C.48298646 .0309906 .45799256 .0309906 .45700074 .061019899V.25221253C.45700074 .3383026 .45700074 .36932374 .42599488 .405365 .4119873 .42237855 .3789978 .4423828 .32099916 .4423828 .24798584 .4423828 .20098877 .39935304 .17298889 .33729554V.4423828L.03199768 .43138124V.40037538C.101989749 .4003601 .10998535 .39335633 .10998535 .34429933Z"/>
<path id="font_2_16" d="M.22200012 .17240906C.1349945 .17240906 .1349945 .2723999 .1349945 .2953949 .1349945 .3223877 .13598633 .35438539 .15098572 .37937928 .15899658 .39137269 .18199158 .41937257 .22200012 .41937257 .30899049 .41937257 .30899049 .3193817 .30899049 .29638673 .30899049 .26939393 .30799867 .23739624 .29299928 .21240235 .2849884 .20040894 .2619934 .17240906 .22200012 .17240906M.10598755 .13330078C.10598755 .1373291 .10598755 .16040039 .12298584 .18040467 .1619873 .15240479 .20298767 .14941406 .22200012 .14941406 .31498719 .14941406 .38398744 .21839905 .38398744 .2953949 .38398744 .3323822 .36799623 .36938478 .34298707 .39237977 .3789978 .42637635 .4149933 .43138124 .43299867 .43138124 .43499757 .43138124 .43998719 .43138124 .44299317 .43037416 .43199159 .42637635 .4269867 .41537477 .4269867 .40338136 .4269867 .38638307 .43998719 .3743744 .45599366 .3743744 .46598817 .3743744 .4850006 .38137818 .4850006 .40437318 .4850006 .42137147 .47299195 .45336915 .43399049 .45336915 .4139862 .45336915 .36999513 .44737245 .32798768 .40637208 .28599549 .43937684 .24398804 .4423828 .22200012 .4423828 .1289978 .4423828 .05999756 .37338258 .05999756 .29638673 .05999756 .25239564 .08198547 .21440125 .10699463 .19340515 .09399414 .17840576 .07598877 .14538574 .07598877 .11013794 .07598877 .07891846 .08898926 .04083252 .11999512 .020828248 .05999756 .003829956 .027999878-.039138795 .027999878-.07911682 .027999878-.15107727 .1269989-.20605469 .24899292-.20605469 .36698915-.20605469 .47099305-.15507508 .47099305-.07711792 .47099305-.042144777 .45700074 .008834839 .4059906 .036834718 .35299684 .064834598 .29499818 .064834598 .23399353 .064834598 .20899964 .064834598 .1659851 .064834598 .15899658 .065841678 .1269989 .069869998 .10598755 .10107422 .10598755 .13330078M.25-.18305969C.14898682-.18305969 .07998657-.13209534 .07998657-.07911682 .07998657-.03314209 .117996219 .003829956 .1619873 .0068359377H.22099304C.30699159 .0068359377 .4189911 .0068359377 .4189911-.07911682 .4189911-.13308716 .34799195-.18305969 .25-.18305969Z"/>
<path id="font_2_22" d="M.47099305 .21424866C.47099305 .34223939 .37098695 .4482422 .25 .4482422 .125 .4482422 .027999878 .3392334 .027999878 .21424866 .027999878 .085250858 .13198853-.0107421879 .24899292-.0107421879 .36999513-.0107421879 .47099305 .087249759 .47099305 .21424866M.25 .014251709C.20698548 .014251709 .16299439 .035247804 .13598633 .08125305 .11099243 .12524414 .11099243 .18624878 .11099243 .22224427 .11099243 .26124574 .11099243 .31523133 .1349945 .35923768 .1619873 .40522767 .20899964 .426239 .24899292 .426239 .29299928 .426239 .33599855 .40423585 .3619995 .36123658 .3880005 .3182373 .3880005 .26023866 .3880005 .22224427 .3880005 .18624878 .3880005 .13224793 .3659973 .08824158 .34399415 .04324341 .2999878 .014251709 .25 .014251709Z"/>
<path id="font_2_20" d="M.10998535 .34429933V.076034549C.10998535 .0309906 .09899902 .0309906 .03199768 .0309906V0C.066986087 .0009918213 .117996219 .0029907227 .14498902 .0029907227 .17098999 .0029907227 .22299195 .0009918213 .25698854 0V.0309906C.18998719 .0309906 .1789856 .0309906 .1789856 .076034549V.2602234C.1789856 .36431886 .25 .42037965 .31399537 .42037965 .3769989 .42037965 .3880005 .36631776 .3880005 .30926515V.076034549C.3880005 .0309906 .3769989 .0309906 .30999757 .0309906V0C.34498597 .0009918213 .3959961 .0029907227 .4229889 .0029907227 .44898988 .0029907227 .5009918 .0009918213 .5349884 0V.0309906C.46798707 .0309906 .45700074 .0309906 .45700074 .076034549V.2602234C.45700074 .36431886 .5279999 .42037965 .59199526 .42037965 .6549988 .42037965 .66600039 .36631776 .66600039 .30926515V.076034549C.66600039 .0309906 .6549988 .0309906 .58799746 .0309906V0C.6230011 .0009918213 .673996 .0029907227 .70098879 .0029907227 .72698977 .0029907227 .7789917 .0009918213 .8129883 0V.0309906C.7609863 .0309906 .73599246 .0309906 .7350006 .061019899V.25221253C.7350006 .3383026 .7350006 .36932374 .70399478 .405365 .6899872 .42237855 .6569977 .4423828 .598999 .4423828 .5149994 .4423828 .47099305 .38233949 .45399476 .34429933 .43998719 .43138124 .3659973 .4423828 .32099916 .4423828 .24798584 .4423828 .20098877 .39935304 .17298889 .33729554V.4423828L.03199768 .43138124V.40037538C.101989749 .4003601 .10998535 .39335633 .10998535 .34429933Z"/>
<path id="font_2_26" d="M.17298889 .3996582H.31599427V.43066407H.17298889V.6147156H.147995C.14698792 .5326996 .116989139 .42565919 .018997193 .42166139V.3996582H.10398865V.12416077C.10398865 .0012512207 .19699097-.0107421879 .23298645-.0107421879 .3039856-.0107421879 .33198548 .06021118 .33198548 .12416077V.18112183H.30699159V.12615967C.30699159 .052215578 .2769928 .014251709 .23999024 .014251709 .17298889 .014251709 .17298889 .10517883 .17298889 .122161868V.3996582Z"/>
<path id="font_2_24" d="M.16699219 .3323059V.4423828L.027999878 .43138124V.40037538C.09799194 .40037538 .10598755 .39337159 .10598755 .34431459V.076034549C.10598755 .0309906 .09498596 .0309906 .027999878 .0309906V0C.066986087 .0009918213 .11399841 .0029907227 .14199829 .0029907227 .18199158 .0029907227 .22898865 .0029907227 .2689972 0V.0309906H.24798584C.17399597 .0309906 .17199707 .042007448 .17199707 .07803345V.232193C.17199707 .33128358 .21398926 .42037965 .2899933 .42037965 .29699708 .42037965 .29899598 .42037965 .30099488 .41937257 .2979889 .41838075 .27799989 .4063568 .27799989 .38034059 .27799989 .35231019 .29899598 .33729554 .32099916 .33729554 .33898927 .33729554 .3639984 .3493042 .3639984 .3813324 .3639984 .41337586 .33299256 .4423828 .2899933 .4423828 .21699524 .4423828 .18099976 .37535096 .16699219 .3323059Z"/>
<path id="font_2_29" d="M.4149933 .33569337C.44099427 .39866639 .49198915 .3996582 .5079956 .3996582V.43066407C.4850006 .4286499 .45599366 .42765809 .43299867 .42765809 .4149933 .42765809 .36799623 .42965699 .34599305 .43066407V.3996582C.3769989 .39866639 .3929901 .3816681 .3929901 .35668946 .3929901 .34669496 .3919983 .34469605 .3869934 .33270265L.28599549 .08683777 .1749878 .35568238C.17098999 .36567689 .16899109 .36967469 .16899109 .3736725 .16899109 .3996582 .20599365 .3996582 .22499085 .3996582V.43066407C.19898987 .42965699 .1329956 .42765809 .115997318 .42765809 .08898926 .42765809 .04899597 .4286499 .018997193 .43066407V.3996582C.066986087 .3996582 .085998538 .3996582 .099990848 .36468507L.25-.00010681152C.24499512-.0131073 .23098755-.046081544 .22499085-.05908203 .20298767-.11405945 .1749878-.18309021 .11099243-.18309021 .10598755-.18309021 .08299255-.18309021 .06399536-.16506958 .09498596-.16105652 .102996829-.1390686 .102996829-.123062137 .102996829-.09706116 .083999637-.08105469 .06098938-.08105469 .040985109-.08105469 .018997193-.094055179 .018997193-.124069217 .018997193-.16906739 .06098938-.20507813 .11099243-.20507813 .17399597-.20507813 .21499634-.14805603 .23899842-.09106445L.4149933 .33569337Z"/>
<path id="font_2_10" d="M.33299256 .076156619C.33699037 .036132814 .3639984-.005859375 .41099549-.005859375 .43199159-.005859375 .49299623 .008132935 .49299623 .089157108V.14518738H.46798707V.089157108C.46798707 .031143189 .44299317 .025131226 .43199159 .025131226 .39898683 .025131226 .394989 .07015991 .394989 .075149539V.27514649C.394989 .31707765 .394989 .3560791 .35899354 .39312745 .31999208 .43223573 .269989 .4482422 .22200012 .4482422 .13999939 .4482422 .070999149 .40115357 .070999149 .335083 .070999149 .30508424 .09098816 .28808595 .116989139 .28808595 .14498902 .28808595 .16299439 .30807496 .16299439 .33407594 .16299439 .3460846 .1579895 .3790741 .11199951 .38008119 .13899231 .41519166 .18798828 .426239 .21998596 .426239 .2689972 .426239 .32598878 .38710023 .32598878 .29808045V.26123048C.2749939 .2582245 .20498657 .25523377 .14199829 .22523499 .066986087 .1912384 .041992189 .13923645 .041992189 .09524536 .041992189 .014251709 .13899231-.0107421879 .20199585-.0107421879 .2679901-.010864258 .31399537 .029129029 .33299256 .076156619M.32598878 .24023438V.1401825C.32598878 .045135499 .2539978 .011138916 .20899964 .011138916 .1599884 .011138916 .11898804 .046142579 .11898804 .09616089 .11898804 .15118408 .16099549 .23422241 .32598878 .24023438Z"/>
<path id="font_2_13" d="M.37998963 .055252077V-.0107421879L.5269928 .00024414063V.03125C.45700074 .03125 .44898988 .038253786 .44898988 .087265018V.69433596L.30499269 .68333438V.6523285C.375 .6523285 .3829956 .6453247 .3829956 .596344V.38035584C.35398866 .41636659 .31098939 .4423828 .25698854 .4423828 .13899231 .4423828 .033996583 .3443451 .033996583 .21531677 .033996583 .088272098 .13198853-.0107421879 .24598694-.0107421879 .30999757-.0107421879 .35499574 .023254395 .37998963 .055252077M.37998963 .323349V.118270877C.37998963 .1002655 .37998963 .0982666 .36898805 .08126831 .33898927 .0332489 .2939911 .011245728 .25099183 .011245728 .20599365 .011245728 .16999817 .037246705 .1459961 .07527161 .11999512 .11627197 .116989139 .17329407 .116989139 .21430969 .116989139 .25131227 .11898804 .31134034 .147995 .35635377 .16899109 .38735963 .20698548 .42037965 .26098634 .42037965 .29599 .42037965 .33799745 .405365 .36898805 .36035157 .37998963 .34335328 .37998963 .34135438 .37998963 .323349Z"/>
<path id="font_2_18" d="M.1769867 .4423828 .036987306 .43138124V.40037538C.101989749 .40037538 .11099243 .3943634 .11099243 .34532167V.076034549C.11099243 .0309906 .099990848 .0309906 .032989503 .0309906V0C.06498718 .0009918213 .11898804 .0029907227 .14299011 .0029907227 .17799378 .0029907227 .21299744 .0009918213 .24699402 0V.0309906C.18099976 .0309906 .1769867 .035995485 .1769867 .075042728V.4423828M.18099976 .6159363C.18099976 .64793398 .1559906 .6689453 .12799073 .6689453 .09700012 .6689453 .07499695 .64193728 .07499695 .6159363 .07499695 .5889435 .09700012 .5629425 .12799073 .5629425 .1559906 .5629425 .18099976 .5839386 .18099976 .6159363Z"/>
<path id="font_2_19" d="M.1769867 .69433596 .032989503 .68333438V.6523285C.102996829 .6523285 .11099243 .6453247 .11099243 .5962982V.07601929C.11099243 .0309906 .099990848 .0309906 .032989503 .0309906V0C.06599426 .0009918213 .11898804 .0029907227 .14399719 .0029907227 .16899109 .0029907227 .21798706 .0009918213 .25498963 0V.0309906C.18798828 .0309906 .1769867 .0309906 .1769867 .07601929V.69433596Z"/>
<path id="font_1_3" d="M.6429901 .27381898H.59599307C.58799746 .2048645 .57099917 .04699707 .3919983 .04699707H.2889862V.63853457H.42399598V.6855469C.37998963 .6825409 .2709961 .6825409 .22200012 .6825409 .17799378 .6825409 .07699585 .6825409 .038986207 .6855469V.63853457H.14698792V.04699707H.038986207V0H.6119995L.6429901 .27381898Z"/>
<path id="font_1_9" d="M.25498963 .19029236C.16699219 .19029236 .16699219 .2572174 .16699219 .3021698 .16699219 .3471222 .16699219 .4140625 .25498963 .4140625 .34298707 .4140625 .34298707 .3471222 .34298707 .3021698 .34298707 .2572174 .34298707 .19029236 .25498963 .19029236M.1329956 .1802826C.1789856 .15629578 .22999573 .15429688 .25498963 .15429688 .39898683 .15429688 .45399476 .23223877 .45399476 .3021698 .45399476 .3491211 .42900086 .38209535 .4139862 .3980713 .44400025 .4140625 .46499635 .4160614 .47599793 .41705323 .47399903 .4120636 .47200013 .4030609 .47200013 .39707948 .47200013 .37210084 .4889984 .35412599 .5149994 .35412599 .54100039 .35412599 .55799868 .37309266 .55799868 .39707948 .55799868 .4200592 .54100039 .4550476 .49499513 .4550476 .47999574 .4550476 .43299867 .45205689 .3889923 .41705323 .37098695 .4290619 .32899476 .45005799 .25498963 .45005799 .11099243 .45005799 .055999757 .37210084 .055999757 .3021698 .055999757 .2612152 .07598877 .22026062 .10798645 .19728089 .07998657 .16229248 .07398987 .12918091 .07398987 .10810852 .07398987 .093048099 .07798767 .044006349 .117996219 .011993408 .10499573 .009002686 .03199768-.011993408 .03199768-.07507324 .03199768-.12612915 .08699036-.20117188 .2869873-.20117188 .46398927-.20117188 .5419922-.14215088 .5419922-.07206726 .5419922-.042037965 .5339966 .020996094 .46699525 .054992677 .41099549 .08300781 .35099793 .08300781 .25498963 .08300781 .22898865 .08300781 .18299866 .08300781 .17799378 .083999637 .13398743 .091033939 .12298584 .12918091 .12298584 .14726258 .12298584 .1572876 .1269989 .17228699 .1329956 .1802826M.19499207-.013000488H.31199647C.34298707-.013000488 .45599366-.013000488 .45599366-.07507324 .45599366-.1111145 .4169922-.16517639 .2869873-.16517639 .16699219-.16517639 .117996219-.119125369 .117996219-.07307434 .117996219-.013000488 .18099976-.013000488 .19499207-.013000488Z"/>
<path id="font_1_1" d="M.31799317 .17382813V.27082826H.0129852299V.17382813H.31799317Z"/>
<path id="font_1_13" d="M.11399841 .3561554V.04699707H.04499817V0C.07299805 .0009918213 .1329956 .0029907227 .17098999 .0029907227 .20999146 .0029907227 .2689972 .0009918213 .29699708 0V.04699707H.22799683V.25610353C.22799683 .36515809 .31498719 .41418458 .3769989 .41418458 .41099549 .41418458 .43299867 .3941803 .43299867 .31713868V.04699707H.3639984V0C.3919983 .0009918213 .45199586 .0029907227 .48999024 .0029907227 .5289917 .0029907227 .58799746 .0009918213 .6159973 0V.04699707H.5469971V.25610353C.5469971 .36515809 .6339874 .41418458 .69599917 .41418458 .7299957 .41418458 .7519989 .3941803 .7519989 .31713868V.04699707H.68299868V0C.71099856 .0009918213 .7709961 .0029907227 .8089905 .0029907227 .84799197 .0029907227 .9069977 .0009918213 .93499758 0V.04699707H.8659973V.30613709C.8659973 .40919496 .8149872 .4501953 .71199038 .4501953 .62098696 .4501953 .56900027 .400177 .54299929 .3541565 .522995 .44718934 .43099977 .4501953 .3929901 .4501953 .30599977 .4501953 .24899292 .40518189 .21699524 .34214784V.4501953L.04499817 .44218446V.39518739C.10699463 .39518739 .11399841 .39518739 .11399841 .3561554Z"/>
<path id="font_2_12" d="M.116989139 .21801758C.116989139 .38093568 .19898987 .42323304 .2519989 .42323304 .26098634 .42323304 .32398988 .42222596 .35899354 .38594056 .31799317 .38293458 .31199647 .3529358 .31199647 .3399353 .31199647 .31393434 .32998658 .2939453 .35798646 .2939453 .38398744 .2939453 .4039917 .3109436 .4039917 .34094239 .4039917 .40911866 .32798768 .4482422 .25099183 .4482422 .12599182 .4482422 .033996583 .3399353 .033996583 .21601868 .033996583 .08816528 .1329956-.0107421879 .24899292-.0107421879 .3829956-.0107421879 .4149933 .10914612 .4149933 .119140628 .4149933 .12911988 .40499879 .12911988 .4019928 .12911988 .3929901 .12911988 .3909912 .12512207 .3889923 .119140628 .3600006 .026229859 .29499818 .014251709 .2579956 .014251709 .20498657 .014251709 .116989139 .0572052 .116989139 .21801758Z"/>
<path id="font_2_5" d="M.055999757 .34179688C.055999757 .1346283 .21798706-.022460938 .4039917-.022460938 .5669861-.022460938 .6649933 .116622928 .6649933 .23271179 .6649933 .24272156 .6649933 .24972534 .6519928 .24972534 .6409912 .24972534 .6409912 .24372864 .6399994 .23371887 .6319885 .09059143 .5249939 .008529663 .41600038 .008529663 .35499574 .008529663 .15899658 .042556764 .15899658 .34080506 .15899658 .64004519 .35398866 .67407229 .4149933 .67407229 .5239868 .67407229 .61299136 .58299258 .6329956 .4368744 .6349945 .42286683 .6349945 .41986085 .6489868 .41986085 .6649933 .41986085 .6649933 .42286683 .6649933 .44387818V.68107607C.6649933 .69807437 .6649933 .7050781 .6539917 .7050781 .6499939 .7050781 .6459961 .7050781 .6380005 .69306948L.58799746 .61901858C.5509949 .6550598 .5 .7050781 .4039917 .7050781 .21699524 .7050781 .055999757 .5459595 .055999757 .34179688Z"/>
<path id="font_2_17" d="M.10998535 .076034549C.10998535 .0309906 .09899902 .0309906 .03199768 .0309906V0C.066986087 .0009918213 .117996219 .0029907227 .14498902 .0029907227 .17098999 .0029907227 .22299195 .0009918213 .25698854 0V.0309906C.18998719 .0309906 .1789856 .0309906 .1789856 .076034549V.2602234C.1789856 .36431886 .25 .42037965 .31399537 .42037965 .3769989 .42037965 .3880005 .36631776 .3880005 .30926515V.076034549C.3880005 .0309906 .3769989 .0309906 .30999757 .0309906V0C.34498597 .0009918213 .3959961 .0029907227 .4229889 .0029907227 .44898988 .0029907227 .5009918 .0009918213 .5349884 0V.0309906C.48298646 .0309906 .45799256 .0309906 .45700074 .061019899V.25221253C.45700074 .3383026 .45700074 .36932374 .42599488 .405365 .4119873 .42237855 .3789978 .4423828 .32099916 .4423828 .23699951 .4423828 .19299317 .38233949 .17599488 .34429933V.69433596L.03199768 .68333438V.6523285C.101989749 .6523285 .10998535 .6453247 .10998535 .596344V.076034549Z"/>
<path id="font_2_25" d="M.20799256 .19424439C.22999573 .19024658 .31199647 .17424011 .31199647 .102249149 .31199647 .051254274 .2769928 .011245728 .19898987 .011245728 .114990238 .011245728 .07899475 .06825256 .05999756 .15324402 .056991579 .1662445 .055999757 .17024231 .04598999 .17024231 .032989503 .17024231 .032989503 .16323853 .032989503 .14524842V.013244629C.032989503-.003753662 .032989503-.0107421879 .04399109-.0107421879 .04899597-.0107421879 .049987794-.009750366 .068984989 .009246826 .070999149 .011245728 .070999149 .013244629 .08898926 .03224182 .1329956-.009750366 .17799378-.0107421879 .19898987-.0107421879 .31399537-.0107421879 .3600006 .056243898 .3600006 .12825012 .3600006 .1812439 .32998658 .21124268 .31799317 .22323609 .2849884 .25523377 .24598694 .26324464 .20399475 .27124024 .147995 .28224183 .08099365 .2952423 .08099365 .35324098 .08099365 .38822938 .10699463 .42922975 .19299317 .42922975 .30299378 .42922975 .30799867 .3392334 .30999757 .3082428 .31098939 .2992401 .31999208 .2992401 .32199098 .2992401 .33499146 .2992401 .33499146 .304245 .33499146 .3232422V.4242401C.33499146 .4412384 .33499146 .4482422 .32398988 .4482422 .31900025 .4482422 .31698609 .4482422 .3039856 .43623353 .30099488 .43223573 .29100038 .42323304 .2869873 .42022706 .24899292 .4482422 .20799256 .4482422 .19299317 .4482422 .070999149 .4482422 .032989503 .38124085 .032989503 .3252411 .032989503 .29023744 .04899597 .26223756 .07598877 .24023438 .10798645 .21424866 .13598633 .2082367 .20799256 .19424439Z"/>
<path id="font_2_23" d="M.17199707 .37635804V.4423828L.027999878 .43138124V.40037538C.09899902 .40037538 .10598755 .3943634 .10598755 .35035707V-.11816406C.10598755-.16334534 .09498596-.16334534 .027999878-.16334534V-.19433594C.06199646-.19334412 .11399841-.19134522 .13999939-.19134522 .16699219-.19134522 .21798706-.19334412 .25299073-.19433594V-.16334534C.18598938-.16334534 .1749878-.16334534 .1749878-.11816406V.05026245 .059265138C.17999268 .043258668 .22200012-.0107421879 .2979889-.0107421879 .4169922-.0107421879 .5209961 .08728027 .5209961 .2163086 .5209961 .34335328 .42399598 .4423828 .31199647 .4423828 .23399353 .4423828 .19198609 .39837647 .17199707 .37635804M.1749878 .11428833V.33735658C.20399475 .3883667 .25299073 .41737367 .3039856 .41737367 .3769989 .41737367 .43798829 .3293457 .43798829 .2163086 .43798829 .09527588 .36799623 .011245728 .2939911 .011245728 .2539978 .011245728 .21598816 .03125 .18899536 .072265628 .1749878 .09327698 .1749878 .0942688 .1749878 .11428833Z"/>
<path id="font_2_9" d="M.34899903 .38783265 .22099304 .41886903C.15899658 .4338684 .11999512 .48791505 .11999512 .5459595 .11999512 .61602786 .17399597 .677063 .2519989 .677063 .4189911 .677063 .44099427 .51293948 .44699098 .4678955 .44799806 .4618988 .44799806 .45588685 .45899964 .45588685 .47200013 .45588685 .47200013 .46089173 .47200013 .47990418V.68107607C.47200013 .69807437 .47200013 .7050781 .46099855 .7050781 .45399476 .7050781 .45298768 .70407107 .44599916 .69207766L.41099549 .6350403C.3809967 .6640625 .33999635 .7050781 .25099183 .7050781 .13999939 .7050781 .055999757 .61701968 .055999757 .51094058 .055999757 .4278717 .10899353 .35481263 .18699646 .3277893 .19799805 .3237915 .24899292 .31178285 .31900025 .2947693 .34599305 .28775025 .37599183 .28074647 .4039917 .24372864 .4249878 .21769715 .43499757 .18467713 .43499757 .15164185 .43499757 .080596927 .3849945 .008529663 .30099488 .008529663 .27198792 .008529663 .19599915 .013534546 .14299011 .062576297 .084991458 .116622928 .08198547 .18066406 .08099365 .21670532 .07998657 .22669983 .07199097 .22669983 .068984989 .22669983 .055999757 .22669983 .055999757 .21969605 .055999757 .20169068V.0015258789C.055999757-.015472412 .055999757-.022460938 .066986087-.022460938 .07398987-.022460938 .07499695-.020462037 .08198547-.009475708 .08198547-.008468628 .084991458-.0054626467 .117996219 .047561647 .14898682 .013534546 .21299744-.022460938 .3019867-.022460938 .4189911-.022460938 .49899293 .07559204 .49899293 .18566895 .49899293 .28575135 .43299867 .36782838 .34899903 .38783265Z"/>
<path id="font_2_27" d="M.3909912 .07926941V-.0107421879L.5349884 .00024414063V.03125C.46499635 .03125 .45700074 .038253786 .45700074 .087265018V.4423828L.30999757 .43138124V.40037538C.37998963 .40037538 .3880005 .39337159 .3880005 .34436036V.16630554C.3880005 .07926941 .33999635 .011245728 .2669983 .011245728 .18299866 .011245728 .1789856 .058258058 .1789856 .11027527V.4423828L.03199768 .43138124V.40037538C.10998535 .40037538 .10998535 .39736939 .10998535 .3083496V.15829468C.10998535 .08027649 .10998535-.0107421879 .2619934-.0107421879 .31799317-.0107421879 .3619995 .01725769 .3909912 .07926941Z"/>
<path id="font_1_2" d="M.2889862 .63853457H.40299989V.6855469C.3619995 .6825409 .2639923 .6825409 .21798706 .6825409 .17199707 .6825409 .07398987 .6825409 .032989503 .6855469V.63853457H.14698792V.04699707H.032989503V0C.07398987 .0029907227 .17199707 .0029907227 .21798706 .0029907227 .2639923 .0029907227 .3619995 .0029907227 .40299989 0V.04699707H.2889862V.63853457Z"/>
<path id="font_1_8" d="M.116989139 .44433595H.041992189V.3973236H.116989139V.04699707H.04798889V0C.08299255 .0009918213 .12799073 .0029907227 .17399597 .0029907227 .21199036 .0029907227 .27598573 .0029907227 .31199647 0V.04699707H.22499085V.3973236H.33999635V.44433595H.21899414V.54525759C.21899414 .65519717 .29499818 .6641846 .31999208 .6641846 .32499696 .6641846 .32998658 .6641846 .33699037 .66218569 .32199098 .65119937 .31399537 .63220217 .31399537 .6132202 .31399537 .57025149 .34899903 .5512543 .375 .5512543 .40499879 .5512543 .43699647 .57225039 .43699647 .6132202 .43699647 .65519717 .40098573 .7001953 .32299806 .7001953 .22499085 .7001953 .116989139 .65818789 .116989139 .54525759V.44433595Z"/>
<path id="font_1_18" d="M.21099854 .29412843C.17399597 .30111695 .10899353 .31211854 .10899353 .3591156 .10899353 .42111207 .20199585 .42111207 .22099304 .42111207 .29599 .42111207 .33399964 .39212037 .33898927 .33711244 .33999635 .32211305 .34098817 .3171234 .3619995 .3171234 .38598634 .3171234 .38598634 .32211305 .38598634 .3451233V.42510987C.38598634 .4441223 .38598634 .453125 .36799623 .453125 .3639984 .453125 .3619995 .453125 .32299806 .43411256 .29699708 .44711305 .2619934 .453125 .22200012 .453125 .19198609 .453125 .037994386 .453125 .037994386 .32211305 .037994386 .28211976 .057998659 .25512696 .07798767 .23812866 .117996219 .203125 .1559906 .1971283 .23298645 .18312073 .2689972 .17712403 .34399415 .16412354 .34399415 .10513306 .34399415 .030136109 .2519989 .030136109 .22999573 .030136109 .12399292 .030136109 .09799194 .103134158 .085998538 .14613343 .08099365 .16012573 .07598877 .16012573 .06199646 .16012573 .037994386 .16012573 .037994386 .15412903 .037994386 .13113404V.022140503C.037994386 .0031280518 .037994386-.005859375 .055999757-.005859375 .06298828-.005859375 .06498718-.005859375 .085998538 .009140015 .08699036 .009140015 .10899353 .024139405 .11199951 .026138306 .1579895-.005859375 .20999146-.005859375 .22999573-.005859375 .26098634-.005859375 .4149933-.005859375 .4149933 .14012146 .4149933 .18312073 .394989 .21812439 .3600006 .24612427 .32099916 .27511598 .2889862 .28112794 .21099854 .29412843Z"/>
<path id="font_2_7" d="M.58200076 .6796112H.032989503V.64860537H.056991579C.13398743 .64860537 .13598633 .63760378 .13598633 .601593V.07791138C.13598633 .04197693 .13398743 .0309906 .056991579 .0309906H.032989503V0C.067993167 .0029907227 .1459961 .0029907227 .18499756 .0029907227 .22599793 .0029907227 .31698609 .0029907227 .35299684 0V.0309906H.31999208C.22499085 .0309906 .22499085 .04397583 .22499085 .0789032V.3244629H.31098939C.40699769 .3244629 .4169922 .29252626 .4169922 .20767212H.44198609V.47251893H.4169922C.4169922 .3884735 .40699769 .35546876 .31098939 .35546876H.22499085V.6085968C.22499085 .64160159 .22698975 .64860537 .27398683 .64860537H.3939972C.5439911 .64860537 .56900027 .5925751 .58499148 .45451356H.6100006L.58200076 .6796112Z"/>
<path id="font_2_3" d="M.27598573 .18710327V.24511719H.010986328V.18710327H.27598573Z"/>
<path id="font_2_28" d="M.2869873 .23480225C.31698609 .2727661 .35499574 .32173158 .3789978 .34770204 .4099884 .383667 .45098878 .39865113 .49798585 .3996582V.43066407C.47200013 .4286499 .44198609 .42765809 .41600038 .42765809 .38598634 .42765809 .33299256 .42965699 .31999208 .43066407V.3996582C.34098817 .3976593 .34899903 .38467408 .34899903 .36868287 .34899903 .3527069 .33898927 .33970643 .33399964 .33372499L.27198792 .25578309 .19400025 .35668946C.18499756 .36668397 .18499756 .36868287 .18499756 .37467958 .18499756 .3896637 .19999695 .39865113 .21998596 .3996582V.43066407C.19400025 .42965699 .12799073 .42765809 .11199951 .42765809 .09098816 .42765809 .04399109 .4286499 .016998291 .43066407V.3996582C.08699036 .3996582 .08799744 .39865113 .1349945 .3387146L.23399353 .20982361 .13999939 .09094238C.09199524 .032989503 .032989503 .0309906 .011993408 .0309906V0C.037994386 .0019989014 .068984989 .0029907227 .09498596 .0029907227 .12399292 .0029907227 .1659851 .0009918213 .18998719 0V.0309906C.16799927 .033996583 .16099549 .04698181 .16099549 .061965944 .16099549 .0839386 .18998719 .11691284 .25099183 .18884278L.32699586 .08894348C.33499146 .07795715 .34799195 .061965944 .34799195 .05596924 .34799195 .04698181 .33898927 .03199768 .31199647 .0309906V0C.34199525 .0009918213 .397995 .0029907227 .41999818 .0029907227 .44699098 .0029907227 .48599244 .0019989014 .5159912 0V.0309906C.46199037 .0309906 .44400025 .032989503 .42099 .061965944L.2869873 .23480225Z"/>
<path id="font_2_8" d="M.24099732 .660614C.23199463 .6826172 .22898865 .6826172 .20599365 .6826172H.036987306V.6516113H.06098938C.13798523 .6516113 .13999939 .64060977 .13999939 .6046295V.10494995C.13999939 .07795715 .13999939 .0309906 .036987306 .0309906V0C.07199097 .0009918213 .12098694 .0029907227 .1539917 .0029907227 .18699646 .0029907227 .23599243 .0009918213 .2709961 0V.0309906C.16799927 .0309906 .16799927 .07795715 .16799927 .10494995V.6436157H.16899109L.4099884 .021987915C.4149933 .008987427 .41999818 0 .42999269 0 .44099427 0 .44400025 .0079956059 .44799806 .018997193L.69400027 .6516113H.69499209V.07795715C.69499209 .041992189 .69299319 .0309906 .6159973 .0309906H.59199526V0C.6289978 .0029907227 .69699099 .0029907227 .73599246 .0029907227 .7749939 .0029907227 .84199526 .0029907227 .8789978 0V.0309906H.8549957C.7779999 .0309906 .776001 .041992189 .776001 .07795715V.6046295C.776001 .64060977 .7779999 .6516113 .8549957 .6516113H.8789978V.6826172H.70999148C.6839905 .6826172 .6839905 .6816101 .6769867 .66360476L.45799256 .10095215 .24099732 .660614Z"/>
<path id="font_2_11" d="M.17199707 .3773346V.69433596L.027999878 .68333438V.6523285C.09799194 .6523285 .10598755 .6453247 .10598755 .596344V0H.1309967C.13198853 .0009918213 .13999939 .01499939 .16699219 .062026979 .18199158 .039260866 .22399903-.0107421879 .2979889-.0107421879 .4169922-.0107421879 .5209961 .08728027 .5209961 .2163086 .5209961 .34335328 .4229889 .4423828 .30899049 .4423828 .23098755 .4423828 .18798828 .39535523 .17199707 .3773346M.1749878 .11407471V.32028199C.1749878 .33929444 .1749878 .3403015 .18598938 .35630799 .22499085 .41236878 .27999879 .42037965 .3039856 .42037965 .34899903 .42037965 .3849945 .39434815 .40899659 .35630799 .43499757 .3152771 .43798829 .2582245 .43798829 .21717835 .43798829 .18014527 .43598939 .12008667 .40699769 .075042728 .38598634 .044021608 .34799195 .010986328 .2939911 .010986328 .24899292 .010986328 .21299744 .035003663 .18899536 .07203674 .1749878 .093063358 .1749878 .096069339 .1749878 .11407471Z"/>
<path id="font_2_1" d="M.44799806 .3996582H.5629883V.43066407H.44499208V.5468445C.44499208 .6359863 .49299623 .68307498 .5379944 .68307498 .54100039 .68307498 .55599978 .68307498 .57099917 .6760559 .5589905 .6720581 .54100039 .6590271 .54100039 .6339874 .54100039 .61094668 .5569916 .59091189 .58399966 .59091189 .61299136 .59091189 .6279907 .61094668 .6279907 .6349945 .6279907 .671051 .59298709 .7050781 .5369873 .7050781 .47799684 .7050781 .43399049 .66703799 .42900086 .66304019 .3999939 .70007327 .34399415 .7050781 .31698609 .7050781 .22200012 .7050781 .10598755 .65301516 .10598755 .5448456V.43066407H.026992798V.3996582H.10598755V.07595825C.10598755 .0309906 .09498596 .0309906 .027999878 .0309906V0C.06098938 .0009918213 .11399841 .0029907227 .13899231 .0029907227 .1639862 .0029907227 .21299744 .0009918213 .25 0V.0309906C.18299866 .0309906 .17199707 .0309906 .17199707 .07595825V.3996582H.38198854V.07595825C.38198854 .0309906 .37098695 .0309906 .3039856 .0309906V0C.34298707 .0009918213 .3899994 .0029907227 .41799928 .0029907227 .45799256 .0029907227 .5049896 .0029907227 .54499819 0V.0309906H.5239868C.44999696 .0309906 .44799806 .04197693 .44799806 .07795715V.3996582M.16899109 .43066407V.5438385C.16899109 .64100649 .25099183 .68307498 .31599427 .68307498 .36499024 .68307498 .3929901 .664032 .3939972 .664032V.66304019C.3769989 .66104128 .35699464 .64801028 .35699464 .6199646 .35699464 .61395266 .35798646 .58891299 .3849945 .579895 .38198854 .5668793 .38198854 .5578613 .38198854 .54585269V.43066407H.16899109Z"/>
<path id="font_2_4" d="M.397995 .69581606C.3929901 .7088165 .3909912 .7158203 .375 .7158203 .35899354 .7158203 .35598756 .70980837 .35099793 .69581606L.14399719 .09791565C.12599182 .04698181 .085998538 .03199768 .03199768 .0309906V0C.054992677 .0009918213 .09799194 .0029907227 .13398743 .0029907227 .16499329 .0029907227 .21699524 .0009918213 .24899292 0V.0309906C.19898987 .0309906 .17399597 .05596924 .17399597 .0819397 .17399597 .08493042 .1749878 .09492493 .17599488 .09692383L.22200012 .2277832H.46899415L.5219879 .07495117C.522995 .07095337 .5249939 .064956668 .5249939 .060958864 .5249939 .0309906 .46899415 .0309906 .44198609 .0309906V0C.47799684 .0029907227 .5479889 .0029907227 .58599856 .0029907227 .6289978 .0029907227 .6749878 .0019989014 .71699526 0V.0309906H.69898989C.6389923 .0309906 .625 .037979127 .6139984 .07095337L.397995 .69581606M.34498597 .58380129 .45799256 .25878907H.23298645L.34498597 .58380129Z"/>
<path id="font_2_15" d="M.1749878 .43066407V.5467529C.1749878 .63479617 .22299195 .68307498 .2669983 .68307498 .269989 .68307498 .2849884 .68307498 .2999878 .675827 .28799439 .6717987 .269989 .6587982 .269989 .6338043 .269989 .61079409 .28599549 .5907898 .31298829 .5907898 .34199525 .5907898 .35699464 .61079409 .35699464 .63479617 .35699464 .6717987 .31999208 .7050781 .2669983 .7050781 .19699097 .7050781 .11199951 .65179446 .11199951 .5457611V.43066407H.032989503V.3996582H.11199951V.07595825C.11199951 .0309906 .100997928 .0309906 .033996583 .0309906V0C.07299805 .0009918213 .11999512 .0029907227 .147995 .0029907227 .18798828 .0029907227 .23498535 .0029907227 .2749939 0V.0309906H.2539978C.17999268 .0309906 .17799378 .04197693 .17799378 .07795715V.3996582H.2919922V.43066407H.1749878Z"/>
</defs>
<use data-text="N" xlink:href="#font_1_4" transform="matrix(9.9626,0,0,-9.9626,26.291,20.599976)" fill="#737373"/>
<use data-text="a" xlink:href="#font_1_5" transform="matrix(9.9626,0,0,-9.9626,35.25734,20.599976)" fill="#737373"/>
<use data-text="n" xlink:href="#font_1_14" transform="matrix(9.9626,0,0,-9.9626,40.82643,20.599976)" fill="#737373"/>
<use data-text="o" xlink:href="#font_1_15" transform="matrix(9.9626,0,0,-9.9626,47.19253,20.599976)" fill="#737373"/>
<use data-text="p" xlink:href="#font_1_16" transform="matrix(9.9626,0,0,-9.9626,52.92103,20.599976)" fill="#737373"/>
<use data-text="a" xlink:href="#font_1_5" transform="matrix(9.9626,0,0,-9.9626,59.28713,20.599976)" fill="#737373"/>
<use data-text="r" xlink:href="#font_1_17" transform="matrix(9.9626,0,0,-9.9626,64.856227,20.599976)" fill="#737373"/>
<use data-text="t" xlink:href="#font_1_19" transform="matrix(9.9626,0,0,-9.9626,69.5785,20.599976)" fill="#737373"/>
<use data-text="i" xlink:href="#font_1_11" transform="matrix(9.9626,0,0,-9.9626,74.031787,20.599976)" fill="#737373"/>
<use data-text="c" xlink:href="#font_1_6" transform="matrix(9.9626,0,0,-9.9626,77.209857,20.599976)" fill="#737373"/>
<use data-text="l" xlink:href="#font_1_12" transform="matrix(9.9626,0,0,-9.9626,82.30074,20.599976)" fill="#737373"/>
<use data-text="e" xlink:href="#font_1_7" transform="matrix(9.9626,0,0,-9.9626,85.47881,20.599976)" fill="#737373"/>
<use data-text="c" xlink:href="#font_1_6" transform="matrix(9.9626,0,0,-9.9626,18.470002,32.554994)" fill="#737373"/>
<use data-text="h" xlink:href="#font_1_10" transform="matrix(9.9626,0,0,-9.9626,23.242085,32.554994)" fill="#737373"/>
<use data-text="a" xlink:href="#font_1_5" transform="matrix(9.9626,0,0,-9.9626,29.608189,32.554994)" fill="#737373"/>
<use data-text="r" xlink:href="#font_1_17" transform="matrix(9.9626,0,0,-9.9626,35.17728,32.554994)" fill="#737373"/>
<use data-text="a" xlink:href="#font_1_5" transform="matrix(9.9626,0,0,-9.9626,39.89955,32.554994)" fill="#737373"/>
<use data-text="c" xlink:href="#font_1_6" transform="matrix(9.9626,0,0,-9.9626,45.468645,32.554994)" fill="#737373"/>
<use data-text="t" xlink:href="#font_1_19" transform="matrix(9.9626,0,0,-9.9626,50.559534,32.554994)" fill="#737373"/>
<use data-text="e" xlink:href="#font_1_7" transform="matrix(9.9626,0,0,-9.9626,55.012815,32.554994)" fill="#737373"/>
<use data-text="r" xlink:href="#font_1_17" transform="matrix(9.9626,0,0,-9.9626,60.263105,32.554994)" fill="#737373"/>
<use data-text="i" xlink:href="#font_1_11" transform="matrix(9.9626,0,0,-9.9626,64.985378,32.554994)" fill="#737373"/>
<use data-text="z" xlink:href="#font_1_20" transform="matrix(9.9626,0,0,-9.9626,68.163448,32.554994)" fill="#737373"/>
<use data-text="a" xlink:href="#font_1_5" transform="matrix(9.9626,0,0,-9.9626,73.25433,32.554994)" fill="#737373"/>
<use data-text="t" xlink:href="#font_1_19" transform="matrix(9.9626,0,0,-9.9626,78.823429,32.554994)" fill="#737373"/>
<use data-text="i" xlink:href="#font_1_11" transform="matrix(9.9626,0,0,-9.9626,83.27671,32.554994)" fill="#737373"/>
<use data-text="o" xlink:href="#font_1_15" transform="matrix(9.9626,0,0,-9.9626,86.45478,32.554994)" fill="#737373"/>
<use data-text="n" xlink:href="#font_1_14" transform="matrix(9.9626,0,0,-9.9626,92.18327,32.554994)" fill="#737373"/>
<path transform="matrix(1,0,0,-1,58.514,23.117981)" stroke-width=".3985" stroke-linecap="butt" stroke-miterlimit="10" stroke-linejoin="miter" fill="none" stroke="#000000" d="M44.16797-25.08536H-44.16797C-46.36891-25.08536-48.15308-26.86952-48.15308-29.07047V-55.96997C-48.15308-58.17091-46.36891-59.95508-44.16797-59.95508H44.16797C46.36891-59.95508 48.15308-58.17091 48.15308-55.96997V-29.07047C48.15308-26.86952 46.36891-25.08536 44.16797-25.08536ZM-48.15308-59.95508"/>
<use data-text="D" xlink:href="#font_2_6" transform="matrix(9.9626,0,0,-9.9626,23.008,63.118989)"/>
<use data-text="e" xlink:href="#font_2_14" transform="matrix(9.9626,0,0,-9.9626,30.619427,63.118989)"/>
<use data-text="f" xlink:href="#font_2_2" transform="matrix(9.9626,0,0,-9.9626,35.04282,63.118989)"/>
<use data-text="n" xlink:href="#font_2_21" transform="matrix(9.9626,0,0,-9.9626,40.582029,63.118989)"/>
<use data-text="e" xlink:href="#font_2_14" transform="matrix(9.9626,0,0,-9.9626,46.121236,63.118989)"/>
<use data-text="g" xlink:href="#font_2_16" transform="matrix(9.9626,0,0,-9.9626,53.862176,63.118989)"/>
<use data-text="e" xlink:href="#font_2_14" transform="matrix(9.9626,0,0,-9.9626,58.843477,63.118989)"/>
<use data-text="o" xlink:href="#font_2_22" transform="matrix(9.9626,0,0,-9.9626,63.26687,63.118989)"/>
<use data-text="m" xlink:href="#font_2_20" transform="matrix(9.9626,0,0,-9.9626,68.24817,63.118989)"/>
<use data-text="e" xlink:href="#font_2_14" transform="matrix(9.9626,0,0,-9.9626,76.54701,63.118989)"/>
<use data-text="t" xlink:href="#font_2_26" transform="matrix(9.9626,0,0,-9.9626,80.970409,63.118989)"/>
<use data-text="r" xlink:href="#font_2_24" transform="matrix(9.9626,0,0,-9.9626,84.845859,63.118989)"/>
<use data-text="y" xlink:href="#font_2_29" transform="matrix(9.9626,0,0,-9.9626,88.7512,63.118989)"/>
<use data-text="a" xlink:href="#font_2_10" transform="matrix(9.9626,0,0,-9.9626,30.826,75.073978)"/>
<use data-text="n" xlink:href="#font_2_21" transform="matrix(9.9626,0,0,-9.9626,35.8073,75.073978)"/>
<use data-text="d" xlink:href="#font_2_13" transform="matrix(9.9626,0,0,-9.9626,41.346509,75.073978)"/>
<use data-text="m" xlink:href="#font_2_20" transform="matrix(9.9626,0,0,-9.9626,50.203264,75.073978)"/>
<use data-text="a" xlink:href="#font_2_10" transform="matrix(9.9626,0,0,-9.9626,58.50211,75.073978)"/>
<use data-text="t" xlink:href="#font_2_26" transform="matrix(9.9626,0,0,-9.9626,63.48341,75.073978)"/>
<use data-text="e" xlink:href="#font_2_14" transform="matrix(9.9626,0,0,-9.9626,67.358867,75.073978)"/>
<use data-text="r" xlink:href="#font_2_24" transform="matrix(9.9626,0,0,-9.9626,71.78226,75.073978)"/>
<use data-text="i" xlink:href="#font_2_18" transform="matrix(9.9626,0,0,-9.9626,75.6876,75.073978)"/>
<use data-text="a" xlink:href="#font_2_10" transform="matrix(9.9626,0,0,-9.9626,78.4572,75.073978)"/>
<use data-text="l" xlink:href="#font_2_19" transform="matrix(9.9626,0,0,-9.9626,83.4385,75.073978)"/>
<path transform="matrix(1,0,0,-1,58.514,23.117981)" stroke-width=".3985" stroke-linecap="butt" stroke-dasharray="1.79329,1.79329" stroke-miterlimit="10" stroke-linejoin="miter" fill="none" stroke="#737373" d="M54.32999 22.91951H-54.32999C-56.53093 22.91951-58.3151 21.13535-58.3151 18.9344V-66.13199C-58.3151-68.33293-56.53093-70.1171-54.32999-70.1171H54.32999C56.53093-70.1171 58.3151-68.33293 58.3151-66.13199V18.9344C58.3151 21.13535 56.53093 22.91951 54.32999 22.91951ZM-58.3151-70.1171"/>
<use data-text="L" xlink:href="#font_1_3" transform="matrix(9.9626,0,0,-9.9626,26.453999,143.41098)" fill="#737373"/>
<use data-text="i" xlink:href="#font_1_11" transform="matrix(9.9626,0,0,-9.9626,33.34812,143.41098)" fill="#737373"/>
<use data-text="g" xlink:href="#font_1_9" transform="matrix(9.9626,0,0,-9.9626,36.52619,143.41098)" fill="#737373"/>
<use data-text="h" xlink:href="#font_1_10" transform="matrix(9.9626,0,0,-9.9626,42.25469,143.41098)" fill="#737373"/>
<use data-text="t" xlink:href="#font_1_19" transform="matrix(9.9626,0,0,-9.9626,48.301988,143.41098)" fill="#737373"/>
<use data-text="-" xlink:href="#font_1_1" transform="matrix(9.9626,0,0,-9.9626,52.75527,143.41098)" fill="#737373"/>
<use data-text="m" xlink:href="#font_1_13" transform="matrix(9.9626,0,0,-9.9626,56.570947,143.41098)" fill="#737373"/>
<use data-text="a" xlink:href="#font_1_5" transform="matrix(9.9626,0,0,-9.9626,66.11512,143.41098)" fill="#737373"/>
<use data-text="t" xlink:href="#font_1_19" transform="matrix(9.9626,0,0,-9.9626,71.68421,143.41098)" fill="#737373"/>
<use data-text="t" xlink:href="#font_1_19" transform="matrix(9.9626,0,0,-9.9626,76.1375,143.41098)" fill="#737373"/>
<use data-text="e" xlink:href="#font_1_7" transform="matrix(9.9626,0,0,-9.9626,80.59078,143.41098)" fill="#737373"/>
<use data-text="r" xlink:href="#font_1_17" transform="matrix(9.9626,0,0,-9.9626,85.84107,143.41098)" fill="#737373"/>
<use data-text="i" xlink:href="#font_1_11" transform="matrix(9.9626,0,0,-9.9626,31.489998,155.36597)" fill="#737373"/>
<use data-text="n" xlink:href="#font_1_14" transform="matrix(9.9626,0,0,-9.9626,34.668069,155.36597)" fill="#737373"/>
<use data-text="t" xlink:href="#font_1_19" transform="matrix(9.9626,0,0,-9.9626,40.715368,155.36597)" fill="#737373"/>
<use data-text="e" xlink:href="#font_1_7" transform="matrix(9.9626,0,0,-9.9626,45.168649,155.36597)" fill="#737373"/>
<use data-text="r" xlink:href="#font_1_17" transform="matrix(9.9626,0,0,-9.9626,50.418939,155.36597)" fill="#737373"/>
<use data-text="a" xlink:href="#font_1_5" transform="matrix(9.9626,0,0,-9.9626,55.141214,155.36597)" fill="#737373"/>
<use data-text="c" xlink:href="#font_1_6" transform="matrix(9.9626,0,0,-9.9626,60.710306,155.36597)" fill="#737373"/>
<use data-text="t" xlink:href="#font_1_19" transform="matrix(9.9626,0,0,-9.9626,65.80119,155.36597)" fill="#737373"/>
<use data-text="i" xlink:href="#font_1_11" transform="matrix(9.9626,0,0,-9.9626,70.25448,155.36597)" fill="#737373"/>
<use data-text="o" xlink:href="#font_1_15" transform="matrix(9.9626,0,0,-9.9626,73.43255,155.36597)" fill="#737373"/>
<use data-text="n" xlink:href="#font_1_14" transform="matrix(9.9626,0,0,-9.9626,79.16104,155.36597)" fill="#737373"/>
<path transform="matrix(1,0,0,-1,58.514,23.117981)" stroke-width=".3985" stroke-linecap="butt" stroke-miterlimit="10" stroke-linejoin="miter" fill="none" stroke="#000000" d="M44.16797-147.89803H-44.16797C-46.36891-147.89803-48.15308-149.68219-48.15308-151.88314V-178.78264C-48.15308-180.98357-46.36891-182.76775-44.16797-182.76775H44.16797C46.36891-182.76775 48.15308-180.98357 48.15308-178.78264V-151.88314C48.15308-149.68219 46.36891-147.89803 44.16797-147.89803ZM-48.15308-182.76775"/>
<use data-text="D" xlink:href="#font_2_6" transform="matrix(9.9626,0,0,-9.9626,14.996999,191.90799)"/>
<use data-text="e" xlink:href="#font_2_14" transform="matrix(9.9626,0,0,-9.9626,22.608426,191.90799)"/>
<use data-text="f" xlink:href="#font_2_2" transform="matrix(9.9626,0,0,-9.9626,27.031823,191.90799)"/>
<use data-text="n" xlink:href="#font_2_21" transform="matrix(9.9626,0,0,-9.9626,32.57103,191.90799)"/>
<use data-text="e" xlink:href="#font_2_14" transform="matrix(9.9626,0,0,-9.9626,38.110239,191.90799)"/>
<use data-text="i" xlink:href="#font_2_18" transform="matrix(9.9626,0,0,-9.9626,45.851179,191.90799)"/>
<use data-text="n" xlink:href="#font_2_21" transform="matrix(9.9626,0,0,-9.9626,48.62078,191.90799)"/>
<use data-text="c" xlink:href="#font_2_12" transform="matrix(9.9626,0,0,-9.9626,54.15999,191.90799)"/>
<use data-text="i" xlink:href="#font_2_18" transform="matrix(9.9626,0,0,-9.9626,58.58338,191.90799)"/>
<use data-text="d" xlink:href="#font_2_13" transform="matrix(9.9626,0,0,-9.9626,61.352987,191.90799)"/>
<use data-text="e" xlink:href="#font_2_14" transform="matrix(9.9626,0,0,-9.9626,66.89219,191.90799)"/>
<use data-text="n" xlink:href="#font_2_21" transform="matrix(9.9626,0,0,-9.9626,71.31558,191.90799)"/>
<use data-text="t" xlink:href="#font_2_26" transform="matrix(9.9626,0,0,-9.9626,76.575839,191.90799)"/>
<use data-text="f" xlink:href="#font_2_2" transform="matrix(9.9626,0,0,-9.9626,83.77879,191.90799)"/>
<use data-text="e" xlink:href="#font_2_14" transform="matrix(9.9626,0,0,-9.9626,89.318,191.90799)"/>
<use data-text="l" xlink:href="#font_2_19" transform="matrix(9.9626,0,0,-9.9626,93.741397,191.90799)"/>
<use data-text="d" xlink:href="#font_2_13" transform="matrix(9.9626,0,0,-9.9626,96.510997,191.90799)"/>
<path transform="matrix(1,0,0,-1,58.514,23.117981)" stroke-width=".3985" stroke-linecap="butt" stroke-miterlimit="10" stroke-linejoin="miter" fill="none" stroke="#000000" d="M44.16797-190.41825H-44.16797C-46.36891-190.41825-48.15308-192.20241-48.15308-194.40335V-221.30286C-48.15308-223.5038-46.36891-225.28797-44.16797-225.28797H44.16797C46.36891-225.28797 48.15308-223.5038 48.15308-221.30286V-194.40335C48.15308-192.20241 46.36891-190.41825 44.16797-190.41825ZM-48.15308-225.28797"/>
<use data-text="C" xlink:href="#font_2_5" transform="matrix(9.9626,0,0,-9.9626,17.362999,233.45899)"/>
<use data-text="h" xlink:href="#font_2_17" transform="matrix(9.9626,0,0,-9.9626,24.555996,233.45899)"/>
<use data-text="o" xlink:href="#font_2_22" transform="matrix(9.9626,0,0,-9.9626,30.095204,233.45899)"/>
<use data-text="o" xlink:href="#font_2_22" transform="matrix(9.9626,0,0,-9.9626,35.355459,233.45899)"/>
<use data-text="s" xlink:href="#font_2_25" transform="matrix(9.9626,0,0,-9.9626,40.336759,233.45899)"/>
<use data-text="e" xlink:href="#font_2_14" transform="matrix(9.9626,0,0,-9.9626,44.262025,233.45899)"/>
<use data-text="p" xlink:href="#font_2_23" transform="matrix(9.9626,0,0,-9.9626,52.002965,233.45899)"/>
<use data-text="r" xlink:href="#font_2_24" transform="matrix(9.9626,0,0,-9.9626,57.54217,233.45899)"/>
<use data-text="o" xlink:href="#font_2_22" transform="matrix(9.9626,0,0,-9.9626,61.44751,233.45899)"/>
<use data-text="p" xlink:href="#font_2_23" transform="matrix(9.9626,0,0,-9.9626,66.42881,233.45899)"/>
<use data-text="a" xlink:href="#font_2_10" transform="matrix(9.9626,0,0,-9.9626,71.96802,233.45899)"/>
<use data-text="g" xlink:href="#font_2_16" transform="matrix(9.9626,0,0,-9.9626,76.94932,233.45899)"/>
<use data-text="a" xlink:href="#font_2_10" transform="matrix(9.9626,0,0,-9.9626,81.93062,233.45899)"/>
<use data-text="t" xlink:href="#font_2_26" transform="matrix(9.9626,0,0,-9.9626,86.91192,233.45899)"/>
<use data-text="o" xlink:href="#font_2_22" transform="matrix(9.9626,0,0,-9.9626,90.78737,233.45899)"/>
<use data-text="r" xlink:href="#font_2_24" transform="matrix(9.9626,0,0,-9.9626,95.76867,233.45899)"/>
<path transform="matrix(1,0,0,-1,58.514,23.117981)" stroke-width=".3985" stroke-linecap="butt" stroke-miterlimit="10" stroke-linejoin="miter" fill="none" stroke="#000000" d="M0-182.967V-187.82796"/>
<path transform="matrix(0,1,1,0,58.514,210.94594)" d="M2.39102 0C1.39476 .19925-.3985 .59775-1.59401 1.49438-.59775 .3985-.59775-.3985-1.59401-1.49438-.3985-.59775 1.39476-.19925 2.39102 0Z"/>
<path transform="matrix(1,0,0,-1,58.514,23.117981)" stroke-width=".3985" stroke-linecap="butt" stroke-miterlimit="10" stroke-linejoin="miter" fill="none" stroke="#000000" d="M44.16797-232.93846H-44.16797C-46.36891-232.93846-48.15308-234.72263-48.15308-236.92357V-263.82307C-48.15308-266.02403-46.36891-267.80818-44.16797-267.80818H44.16797C46.36891-267.80818 48.15308-266.02403 48.15308-263.82307V-236.92357C48.15308-234.72263 46.36891-232.93846 44.16797-232.93846ZM-48.15308-267.80818"/>
<use data-text="S" xlink:href="#font_2_9" transform="matrix(9.9626,0,0,-9.9626,36.361,270.914)"/>
<use data-text="c" xlink:href="#font_2_12" transform="matrix(9.9626,0,0,-9.9626,41.900209,270.914)"/>
<use data-text="a" xlink:href="#font_2_10" transform="matrix(9.9626,0,0,-9.9626,46.3236,270.914)"/>
<use data-text="t" xlink:href="#font_2_26" transform="matrix(9.9626,0,0,-9.9626,51.3049,270.914)"/>
<use data-text="t" xlink:href="#font_2_26" transform="matrix(9.9626,0,0,-9.9626,55.18035,270.914)"/>
<use data-text="e" xlink:href="#font_2_14" transform="matrix(9.9626,0,0,-9.9626,59.0558,270.914)"/>
<use data-text="r" xlink:href="#font_2_24" transform="matrix(9.9626,0,0,-9.9626,63.479196,270.914)"/>
<use data-text="i" xlink:href="#font_2_18" transform="matrix(9.9626,0,0,-9.9626,67.38454,270.914)"/>
<use data-text="n" xlink:href="#font_2_21" transform="matrix(9.9626,0,0,-9.9626,70.15414,270.914)"/>
<use data-text="g" xlink:href="#font_2_16" transform="matrix(9.9626,0,0,-9.9626,75.693347,270.914)"/>
<use data-text="s" xlink:href="#font_2_25" transform="matrix(9.9626,0,0,-9.9626,35.932,282.87)"/>
<use data-text="i" xlink:href="#font_2_18" transform="matrix(9.9626,0,0,-9.9626,39.857267,282.87)"/>
<use data-text="m" xlink:href="#font_2_20" transform="matrix(9.9626,0,0,-9.9626,42.62687,282.87)"/>
<use data-text="u" xlink:href="#font_2_27" transform="matrix(9.9626,0,0,-9.9626,50.646764,282.87)"/>
<use data-text="l" xlink:href="#font_2_19" transform="matrix(9.9626,0,0,-9.9626,56.18597,282.87)"/>
<use data-text="a" xlink:href="#font_2_10" transform="matrix(9.9626,0,0,-9.9626,58.955575,282.87)"/>
<use data-text="t" xlink:href="#font_2_26" transform="matrix(9.9626,0,0,-9.9626,63.936876,282.87)"/>
<use data-text="i" xlink:href="#font_2_18" transform="matrix(9.9626,0,0,-9.9626,67.812328,282.87)"/>
<use data-text="o" xlink:href="#font_2_22" transform="matrix(9.9626,0,0,-9.9626,70.581928,282.87)"/>
<use data-text="n" xlink:href="#font_2_21" transform="matrix(9.9626,0,0,-9.9626,75.563228,282.87)"/>
<path transform="matrix(1,0,0,-1,58.514,23.117981)" stroke-width=".3985" stroke-linecap="butt" stroke-miterlimit="10" stroke-linejoin="miter" fill="none" stroke="#000000" d="M0-225.48722V-230.34819"/>
<path transform="matrix(0,1,1,0,58.514,253.46617)" d="M2.39102 0C1.39476 .19925-.3985 .59775-1.59401 1.49438-.59775 .3985-.59775-.3985-1.59401-1.49438-.3985-.59775 1.39476-.19925 2.39102 0Z"/>
<path transform="matrix(1,0,0,-1,58.514,23.117981)" stroke-width=".3985" stroke-linecap="butt" stroke-dasharray="1.79329,1.79329" stroke-miterlimit="10" stroke-linejoin="miter" fill="none" stroke="#737373" d="M54.32999-99.89313H-54.32999C-56.53093-99.89313-58.3151-101.6773-58.3151-103.87823V-273.98509C-58.3151-276.18605-56.53093-277.9702-54.32999-277.9702H54.32999C56.53093-277.9702 58.3151-276.18605 58.3151-273.98509V-103.87823C58.3151-101.6773 56.53093-99.89313 54.32999-99.89313ZM-58.3151-277.9702"/>
<path transform="matrix(1,0,0,-1,58.514,23.117981)" stroke-width=".3985" stroke-linecap="butt" stroke-dasharray="2.98883,2.98883" stroke-miterlimit="10" stroke-linejoin="miter" fill="none" stroke="#737373" d="M0-70.31635V-97.30286"/>
<path transform="matrix(0,1,1,0,58.514,120.42084)" d="M2.39102 0C1.39476 .19925-.3985 .59775-1.59401 1.49438-.59775 .3985-.59775-.3985-1.59401-1.49438-.3985-.59775 1.39476-.19925 2.39102 0Z" fill="#737373"/>
<use data-text="I" xlink:href="#font_1_2" transform="matrix(9.9626,0,0,-9.9626,28.760998,350.29295)" fill="#737373"/>
<use data-text="n" xlink:href="#font_1_14" transform="matrix(9.9626,0,0,-9.9626,33.104696,350.29295)" fill="#737373"/>
<use data-text="f" xlink:href="#font_1_8" transform="matrix(9.9626,0,0,-9.9626,39.470796,350.29295)" fill="#737373"/>
<use data-text="o" xlink:href="#font_1_15" transform="matrix(9.9626,0,0,-9.9626,42.967668,350.29295)" fill="#737373"/>
<use data-text="r" xlink:href="#font_1_17" transform="matrix(9.9626,0,0,-9.9626,48.696165,350.29295)" fill="#737373"/>
<use data-text="m" xlink:href="#font_1_13" transform="matrix(9.9626,0,0,-9.9626,53.418436,350.29295)" fill="#737373"/>
<use data-text="a" xlink:href="#font_1_5" transform="matrix(9.9626,0,0,-9.9626,62.962606,350.29295)" fill="#737373"/>
<use data-text="t" xlink:href="#font_1_19" transform="matrix(9.9626,0,0,-9.9626,68.5317,350.29295)" fill="#737373"/>
<use data-text="i" xlink:href="#font_1_11" transform="matrix(9.9626,0,0,-9.9626,72.984989,350.29295)" fill="#737373"/>
<use data-text="o" xlink:href="#font_1_15" transform="matrix(9.9626,0,0,-9.9626,76.163059,350.29295)" fill="#737373"/>
<use data-text="n" xlink:href="#font_1_14" transform="matrix(9.9626,0,0,-9.9626,81.89155,350.29295)" fill="#737373"/>
<use data-text="p" xlink:href="#font_1_16" transform="matrix(9.9626,0,0,-9.9626,37.664,362.24794)" fill="#737373"/>
<use data-text="a" xlink:href="#font_1_5" transform="matrix(9.9626,0,0,-9.9626,44.0301,362.24794)" fill="#737373"/>
<use data-text="t" xlink:href="#font_1_19" transform="matrix(9.9626,0,0,-9.9626,49.599195,362.24794)" fill="#737373"/>
<use data-text="t" xlink:href="#font_1_19" transform="matrix(9.9626,0,0,-9.9626,54.052476,362.24794)" fill="#737373"/>
<use data-text="e" xlink:href="#font_1_7" transform="matrix(9.9626,0,0,-9.9626,58.505758,362.24794)" fill="#737373"/>
<use data-text="r" xlink:href="#font_1_17" transform="matrix(9.9626,0,0,-9.9626,63.756048,362.24794)" fill="#737373"/>
<use data-text="n" xlink:href="#font_1_14" transform="matrix(9.9626,0,0,-9.9626,68.47832,362.24794)" fill="#737373"/>
<use data-text="s" xlink:href="#font_1_18" transform="matrix(9.9626,0,0,-9.9626,74.84442,362.24794)" fill="#737373"/>
<path transform="matrix(1,0,0,-1,58.514,23.117981)" stroke-width=".3985" stroke-linecap="butt" stroke-miterlimit="10" stroke-linejoin="miter" fill="none" stroke="#000000" d="M44.16797-355.75114H-44.16797C-46.36891-355.75114-48.15308-357.5353-48.15308-359.73625V-386.63578C-48.15308-388.8367-46.36891-390.62086-44.16797-390.62086H44.16797C46.36891-390.62086 48.15308-388.8367 48.15308-386.63578V-359.73625C48.15308-357.5353 46.36891-355.75114 44.16797-355.75114ZM-48.15308-390.62086"/>
<use data-text="F" xlink:href="#font_2_7" transform="matrix(9.9626,0,0,-9.9626,22.412999,392.812)"/>
<use data-text="a" xlink:href="#font_2_10" transform="matrix(9.9626,0,0,-9.9626,28.091683,392.812)"/>
<use data-text="r" xlink:href="#font_2_24" transform="matrix(9.9626,0,0,-9.9626,33.072984,392.812)"/>
<use data-text="-" xlink:href="#font_2_3" transform="matrix(9.9626,0,0,-9.9626,36.97832,392.812)"/>
<use data-text="f" xlink:href="#font_2_2" transform="matrix(9.9626,0,0,-9.9626,40.295869,392.812)"/>
<use data-text="e" xlink:href="#font_2_14" transform="matrix(9.9626,0,0,-9.9626,45.835077,392.812)"/>
<use data-text="l" xlink:href="#font_2_19" transform="matrix(9.9626,0,0,-9.9626,50.25847,392.812)"/>
<use data-text="d" xlink:href="#font_2_13" transform="matrix(9.9626,0,0,-9.9626,53.028074,392.812)"/>
<use data-text="s" xlink:href="#font_2_25" transform="matrix(9.9626,0,0,-9.9626,61.884828,392.812)"/>
<use data-text="c" xlink:href="#font_2_12" transform="matrix(9.9626,0,0,-9.9626,65.81009,392.812)"/>
<use data-text="a" xlink:href="#font_2_10" transform="matrix(9.9626,0,0,-9.9626,70.23348,392.812)"/>
<use data-text="t" xlink:href="#font_2_26" transform="matrix(9.9626,0,0,-9.9626,75.21478,392.812)"/>
<use data-text="t" xlink:href="#font_2_26" transform="matrix(9.9626,0,0,-9.9626,79.09023,392.812)"/>
<use data-text="e" xlink:href="#font_2_14" transform="matrix(9.9626,0,0,-9.9626,82.96568,392.812)"/>
<use data-text="r" xlink:href="#font_2_24" transform="matrix(9.9626,0,0,-9.9626,87.38908,392.812)"/>
<use data-text="-" xlink:href="#font_2_3" transform="matrix(9.9626,0,0,-9.9626,91.29442,392.812)"/>
<use data-text="i" xlink:href="#font_2_18" transform="matrix(9.9626,0,0,-9.9626,28.196999,404.767)"/>
<use data-text="n" xlink:href="#font_2_21" transform="matrix(9.9626,0,0,-9.9626,30.966603,404.767)"/>
<use data-text="g" xlink:href="#font_2_16" transform="matrix(9.9626,0,0,-9.9626,36.50581,404.767)"/>
<use data-text="e" xlink:href="#font_2_14" transform="matrix(9.9626,0,0,-9.9626,44.804658,404.767)"/>
<use data-text="x" xlink:href="#font_2_28" transform="matrix(9.9626,0,0,-9.9626,49.22805,404.767)"/>
<use data-text="t" xlink:href="#font_2_26" transform="matrix(9.9626,0,0,-9.9626,54.488306,404.767)"/>
<use data-text="r" xlink:href="#font_2_24" transform="matrix(9.9626,0,0,-9.9626,58.363756,404.767)"/>
<use data-text="a" xlink:href="#font_2_10" transform="matrix(9.9626,0,0,-9.9626,62.269094,404.767)"/>
<use data-text="c" xlink:href="#font_2_12" transform="matrix(9.9626,0,0,-9.9626,67.25039,404.767)"/>
<use data-text="t" xlink:href="#font_2_26" transform="matrix(9.9626,0,0,-9.9626,71.67378,404.767)"/>
<use data-text="i" xlink:href="#font_2_18" transform="matrix(9.9626,0,0,-9.9626,75.54923,404.767)"/>
<use data-text="o" xlink:href="#font_2_22" transform="matrix(9.9626,0,0,-9.9626,78.31883,404.767)"/>
<use data-text="n" xlink:href="#font_2_21" transform="matrix(9.9626,0,0,-9.9626,83.30013,404.767)"/>
<path transform="matrix(1,0,0,-1,58.514,23.117981)" stroke-width=".3985" stroke-linecap="butt" stroke-miterlimit="10" stroke-linejoin="miter" fill="none" stroke="#000000" d="M44.16797-398.27137H-44.16797C-46.36891-398.27137-48.15308-400.05555-48.15308-402.25648V-429.15599C-48.15308-431.35694-46.36891-433.14109-44.16797-433.14109H44.16797C46.36891-433.14109 48.15308-431.35694 48.15308-429.15599V-402.25648C48.15308-400.05555 46.36891-398.27137 44.16797-398.27137ZM-48.15308-433.14109"/>
<use data-text="M" xlink:href="#font_2_8" transform="matrix(9.9626,0,0,-9.9626,34.161,435.332)"/>
<use data-text="e" xlink:href="#font_2_14" transform="matrix(9.9626,0,0,-9.9626,43.296705,435.332)"/>
<use data-text="c" xlink:href="#font_2_12" transform="matrix(9.9626,0,0,-9.9626,47.720098,435.332)"/>
<use data-text="h" xlink:href="#font_2_17" transform="matrix(9.9626,0,0,-9.9626,51.864538,435.332)"/>
<use data-text="a" xlink:href="#font_2_10" transform="matrix(9.9626,0,0,-9.9626,57.403745,435.332)"/>
<use data-text="n" xlink:href="#font_2_21" transform="matrix(9.9626,0,0,-9.9626,62.385046,435.332)"/>
<use data-text="i" xlink:href="#font_2_18" transform="matrix(9.9626,0,0,-9.9626,67.92425,435.332)"/>
<use data-text="c" xlink:href="#font_2_12" transform="matrix(9.9626,0,0,-9.9626,70.69385,435.332)"/>
<use data-text="a" xlink:href="#font_2_10" transform="matrix(9.9626,0,0,-9.9626,75.11724,435.332)"/>
<use data-text="l" xlink:href="#font_2_19" transform="matrix(9.9626,0,0,-9.9626,80.09854,435.332)"/>
<use data-text="p" xlink:href="#font_2_23" transform="matrix(9.9626,0,0,-9.9626,30.949997,447.287)"/>
<use data-text="e" xlink:href="#font_2_14" transform="matrix(9.9626,0,0,-9.9626,36.768159,447.287)"/>
<use data-text="r" xlink:href="#font_2_24" transform="matrix(9.9626,0,0,-9.9626,41.19155,447.287)"/>
<use data-text="t" xlink:href="#font_2_26" transform="matrix(9.9626,0,0,-9.9626,45.09689,447.287)"/>
<use data-text="u" xlink:href="#font_2_27" transform="matrix(9.9626,0,0,-9.9626,48.97234,447.287)"/>
<use data-text="r" xlink:href="#font_2_24" transform="matrix(9.9626,0,0,-9.9626,54.511548,447.287)"/>
<use data-text="b" xlink:href="#font_2_11" transform="matrix(9.9626,0,0,-9.9626,58.416887,447.287)"/>
<use data-text="a" xlink:href="#font_2_10" transform="matrix(9.9626,0,0,-9.9626,63.956094,447.287)"/>
<use data-text="t" xlink:href="#font_2_26" transform="matrix(9.9626,0,0,-9.9626,68.93739,447.287)"/>
<use data-text="i" xlink:href="#font_2_18" transform="matrix(9.9626,0,0,-9.9626,72.81284,447.287)"/>
<use data-text="o" xlink:href="#font_2_22" transform="matrix(9.9626,0,0,-9.9626,75.58244,447.287)"/>
<use data-text="n" xlink:href="#font_2_21" transform="matrix(9.9626,0,0,-9.9626,80.56374,447.287)"/>
<path transform="matrix(1,0,0,-1,58.514,23.117981)" stroke-width=".3985" stroke-linecap="butt" stroke-miterlimit="10" stroke-linejoin="miter" fill="none" stroke="#000000" d="M0-390.8201V-395.6811"/>
<path transform="matrix(0,1,1,0,58.514,418.79908)" d="M2.39102 0C1.39476 .19925-.3985 .59775-1.59401 1.49438-.59775 .3985-.59775-.3985-1.59401-1.49438-.3985-.59775 1.39476-.19925 2.39102 0Z"/>
<path transform="matrix(1,0,0,-1,58.514,23.117981)" stroke-width=".3985" stroke-linecap="butt" stroke-miterlimit="10" stroke-linejoin="miter" fill="none" stroke="#000000" d="M44.16797-440.79158H-44.16797C-46.36891-440.79158-48.15308-442.57575-48.15308-444.7767V-471.6762C-48.15308-473.87715-46.36891-475.6613-44.16797-475.6613H44.16797C46.36891-475.6613 48.15308-473.87715 48.15308-471.6762V-444.7767C48.15308-442.57575 46.36891-440.79158 44.16797-440.79158ZM-48.15308-475.6613"/>
<use data-text="F" xlink:href="#font_2_7" transform="matrix(9.9626,0,0,-9.9626,25.222,484.79798)"/>
<use data-text="i" xlink:href="#font_2_18" transform="matrix(9.9626,0,0,-9.9626,31.727578,484.79798)"/>
<use data-text="e" xlink:href="#font_2_14" transform="matrix(9.9626,0,0,-9.9626,34.49718,484.79798)"/>
<use data-text="l" xlink:href="#font_2_19" transform="matrix(9.9626,0,0,-9.9626,38.920576,484.79798)"/>
<use data-text="d" xlink:href="#font_2_13" transform="matrix(9.9626,0,0,-9.9626,41.690179,484.79798)"/>
<use data-text="d" xlink:href="#font_2_13" transform="matrix(9.9626,0,0,-9.9626,50.546934,484.79798)"/>
<use data-text="i" xlink:href="#font_2_18" transform="matrix(9.9626,0,0,-9.9626,56.08614,484.79798)"/>
<use data-text="f" xlink:href="#font_2_1" transform="matrix(9.9626,0,0,-9.9626,58.855745,484.79798)"/>
<use data-text="e" xlink:href="#font_2_14" transform="matrix(9.9626,0,0,-9.9626,64.66394,484.79798)"/>
<use data-text="r" xlink:href="#font_2_24" transform="matrix(9.9626,0,0,-9.9626,69.08733,484.79798)"/>
<use data-text="e" xlink:href="#font_2_14" transform="matrix(9.9626,0,0,-9.9626,72.992679,484.79798)"/>
<use data-text="n" xlink:href="#font_2_21" transform="matrix(9.9626,0,0,-9.9626,77.41607,484.79798)"/>
<use data-text="c" xlink:href="#font_2_12" transform="matrix(9.9626,0,0,-9.9626,82.95528,484.79798)"/>
<use data-text="e" xlink:href="#font_2_14" transform="matrix(9.9626,0,0,-9.9626,87.37867,484.79798)"/>
<path transform="matrix(1,0,0,-1,58.514,23.117981)" stroke-width=".3985" stroke-linecap="butt" stroke-miterlimit="10" stroke-linejoin="miter" fill="none" stroke="#000000" d="M0-433.34034V-438.20133"/>
<path transform="matrix(0,1,1,0,58.514,461.3193)" d="M2.39102 0C1.39476 .19925-.3985 .59775-1.59401 1.49438-.59775 .3985-.59775-.3985-1.59401-1.49438-.3985-.59775 1.39476-.19925 2.39102 0Z"/>
<path transform="matrix(1,0,0,-1,58.514,23.117981)" stroke-width=".3985" stroke-linecap="butt" stroke-miterlimit="10" stroke-linejoin="miter" fill="none" stroke="#000000" d="M44.16797-483.3118H-44.16797C-46.36891-483.3118-48.15308-485.09599-48.15308-487.2969V-514.1964C-48.15308-516.3974-46.36891-518.1815-44.16797-518.1815H44.16797C46.36891-518.1815 48.15308-516.3974 48.15308-514.1964V-487.2969C48.15308-485.09599 46.36891-483.3118 44.16797-483.3118ZM-48.15308-518.1815"/>
<use data-text="A" xlink:href="#font_2_4" transform="matrix(9.9626,0,0,-9.9626,27.490998,520.371)"/>
<use data-text="n" xlink:href="#font_2_21" transform="matrix(9.9626,0,0,-9.9626,34.96295,520.371)"/>
<use data-text="g" xlink:href="#font_2_16" transform="matrix(9.9626,0,0,-9.9626,40.50216,520.371)"/>
<use data-text="u" xlink:href="#font_2_27" transform="matrix(9.9626,0,0,-9.9626,45.48346,520.371)"/>
<use data-text="l" xlink:href="#font_2_19" transform="matrix(9.9626,0,0,-9.9626,51.022668,520.371)"/>
<use data-text="a" xlink:href="#font_2_10" transform="matrix(9.9626,0,0,-9.9626,53.79227,520.371)"/>
<use data-text="r" xlink:href="#font_2_24" transform="matrix(9.9626,0,0,-9.9626,58.77357,520.371)"/>
<use data-text="i" xlink:href="#font_2_18" transform="matrix(9.9626,0,0,-9.9626,65.99645,520.371)"/>
<use data-text="n" xlink:href="#font_2_21" transform="matrix(9.9626,0,0,-9.9626,68.76605,520.371)"/>
<use data-text="f" xlink:href="#font_2_15" transform="matrix(9.9626,0,0,-9.9626,74.30526,520.371)"/>
<use data-text="o" xlink:href="#font_2_22" transform="matrix(9.9626,0,0,-9.9626,77.35381,520.371)"/>
<use data-text="r" xlink:href="#font_2_24" transform="matrix(9.9626,0,0,-9.9626,82.33511,520.371)"/>
<use data-text="-" xlink:href="#font_2_3" transform="matrix(9.9626,0,0,-9.9626,86.240459,520.371)"/>
<use data-text="m" xlink:href="#font_2_20" transform="matrix(9.9626,0,0,-9.9626,23.602997,532.326)"/>
<use data-text="a" xlink:href="#font_2_10" transform="matrix(9.9626,0,0,-9.9626,31.901844,532.326)"/>
<use data-text="t" xlink:href="#font_2_26" transform="matrix(9.9626,0,0,-9.9626,36.883146,532.326)"/>
<use data-text="i" xlink:href="#font_2_18" transform="matrix(9.9626,0,0,-9.9626,40.758596,532.326)"/>
<use data-text="o" xlink:href="#font_2_22" transform="matrix(9.9626,0,0,-9.9626,43.5282,532.326)"/>
<use data-text="n" xlink:href="#font_2_21" transform="matrix(9.9626,0,0,-9.9626,48.5095,532.326)"/>
<use data-text="p" xlink:href="#font_2_23" transform="matrix(9.9626,0,0,-9.9626,57.366254,532.326)"/>
<use data-text="a" xlink:href="#font_2_10" transform="matrix(9.9626,0,0,-9.9626,62.90546,532.326)"/>
<use data-text="t" xlink:href="#font_2_26" transform="matrix(9.9626,0,0,-9.9626,67.88676,532.326)"/>
<use data-text="t" xlink:href="#font_2_26" transform="matrix(9.9626,0,0,-9.9626,71.76221,532.326)"/>
<use data-text="e" xlink:href="#font_2_14" transform="matrix(9.9626,0,0,-9.9626,75.63766,532.326)"/>
<use data-text="r" xlink:href="#font_2_24" transform="matrix(9.9626,0,0,-9.9626,80.06105,532.326)"/>
<use data-text="n" xlink:href="#font_2_21" transform="matrix(9.9626,0,0,-9.9626,83.96639,532.326)"/>
<use data-text="s" xlink:href="#font_2_25" transform="matrix(9.9626,0,0,-9.9626,89.5056,532.326)"/>
<path transform="matrix(1,0,0,-1,58.514,23.117981)" stroke-width=".3985" stroke-linecap="butt" stroke-miterlimit="10" stroke-linejoin="miter" fill="none" stroke="#000000" d="M0-475.86058V-480.72154"/>
<path transform="matrix(0,1,1,0,58.514,503.8395)" d="M2.39102 0C1.39476 .19925-.3985 .59775-1.59401 1.49438-.59775 .3985-.59775-.3985-1.59401-1.49438-.3985-.59775 1.39476-.19925 2.39102 0Z"/>
<path transform="matrix(1,0,0,-1,58.514,23.117981)" stroke-width=".3985" stroke-linecap="butt" stroke-dasharray="1.79329,1.79329" stroke-miterlimit="10" stroke-linejoin="miter" fill="none" stroke="#737373" d="M54.32999-306.77763H-54.32999C-56.53093-306.77763-58.3151-308.5618-58.3151-310.76274V-524.35848C-58.3151-526.5594-56.53093-528.34359-54.32999-528.34359H54.32999C56.53093-528.34359 58.3151-526.5594 58.3151-524.35848V-310.76274C58.3151-308.5618 56.53093-306.77763 54.32999-306.77763ZM-58.3151-528.34359"/>
<path transform="matrix(1,0,0,-1,58.514,23.117981)" stroke-width=".3985" stroke-linecap="butt" stroke-dasharray="2.98883,2.98883" stroke-miterlimit="10" stroke-linejoin="miter" fill="none" stroke="#737373" d="M0-278.16947V-304.18736"/>
<path transform="matrix(0,1,1,0,58.514,327.30534)" d="M2.39102 0C1.39476 .19925-.3985 .59775-1.59401 1.49438-.59775 .3985-.59775-.3985-1.59401-1.49438-.3985-.59775 1.39476-.19925 2.39102 0Z" fill="#737373"/>

</g>
</svg>
